# xmcd CD database file
#
# Track frame offsets:
#	150
#	11583
#	25638
#	39062
#	53413
#	67891
#	81873
#	97214
#	112981
#	124729
#
# Disc length: 1887 seconds
#
# Revision: 0
# Processed by: cddbd v1.5.2PL0 Copyright (c) Steve Scherf et al.
# Submitted via: CDex 1.51
#
DISCID=6c075d0a
DTITLE=Beth Williams - First Class
DYEAR=1987
DGENRE=Country
TTITLE0=Man At The Backdoor
TTITLE1=You Blew It
TTITLE2=Fall Down On My Knees
TTITLE3=The Way I Do
TTITLE4=You Took It All
TTITLE5=These Eyes
TTITLE6=Don't Give Up On Me Now
TTITLE7=Blue Tonight
TTITLE8=End OF THe Highway
TTITLE9=Mama's Song
EXTD=YEAR: 1987
EXTT0=
EXTT1=
EXTT2=
EXTT3=
EXTT4=
EXTT5=
EXTT6=
EXTT7=
EXTT8=
EXTT9=
PLAYORDER=
